<svg width="241" height="32" viewBox="0 0 241 32" fill="none" xmlns="http://www.w3.org/2000/svg"><g clip-path="url(#a)" fill="#fff"><path d="M41.594 28.368v-2.093H32.53v-11.35h2.485v9.223h5.51v-9.223h2.502v9.223h1.05v4.22h-2.484Zm7.648-2.093h-2.397v-11.35h2.485v7.334l5.406-7.335h2.554v11.351h-2.484v-7.607l-5.564 7.607Zm19.22 0h-2.485v-1.14c-1.785-.148-3.173-.613-4.164-1.396-.98-.782-1.47-1.826-1.47-3.13 0-1.294.49-2.332 1.47-3.115.991-.783 2.38-1.253 4.164-1.412v-1.158h2.484v1.158c1.785.159 3.167.63 4.147 1.412.99.772 1.487 1.81 1.487 3.114 0 1.305-.496 2.349-1.487 3.131-.98.783-2.362 1.248-4.147 1.396v1.14Zm2.291-4.084c.537-.409.805-.936.805-1.583 0-.646-.269-1.174-.805-1.582-.525-.409-1.289-.67-2.292-.783v4.73c1.003-.113 1.767-.374 2.292-.782Zm-7.068-3.165c-.525.408-.787.936-.787 1.582 0 .647.262 1.174.787 1.583.525.408 1.289.67 2.292.783v-4.731c-1.003.113-1.767.374-2.292.783Zm15.981 7.25h-2.484V14.924h5.459c1.224 0 2.18.351 2.869 1.055.7.692 1.05 1.56 1.05 2.603 0 1.033-.35 1.9-1.05 2.604-.7.703-1.657 1.055-2.87 1.055h-2.974v4.033Zm2.642-6.161c.502 0 .91-.136 1.225-.409.326-.283.49-.658.49-1.123 0-.465-.164-.834-.49-1.106-.315-.284-.723-.425-1.225-.425h-2.642v3.063h2.642Zm12.632 6.364c-1.761 0-3.219-.55-4.374-1.65-1.143-1.112-1.714-2.519-1.714-4.22 0-1.703.571-3.104 1.714-4.204 1.155-1.112 2.613-1.668 4.374-1.668 1.773 0 3.23.55 4.374 1.651 1.155 1.1 1.732 2.507 1.732 4.22 0 1.713-.577 3.12-1.732 4.22-1.143 1.101-2.601 1.651-4.374 1.651Zm-2.572-3.199c.653.703 1.51 1.055 2.572 1.055 1.061 0 1.919-.352 2.572-1.055s.98-1.594.98-2.672-.327-1.968-.98-2.671c-.653-.704-1.51-1.056-2.572-1.056-1.061 0-1.919.352-2.572 1.056-.641.703-.962 1.593-.962 2.671 0 1.078.32 1.969.962 2.672Zm18.067 2.995h-6.334v-11.35h6.141c1.062 0 1.884.283 2.467.85.595.556.892 1.237.892 2.042 0 .692-.192 1.271-.577 1.736a2.431 2.431 0 0 1-1.435.868c.63.09 1.161.403 1.593.936.431.533.647 1.152.647 1.855 0 .885-.298 1.617-.892 2.195-.595.579-1.429.868-2.502.868Zm-.735-6.807c.42 0 .752-.113.997-.34.245-.227.368-.522.368-.885s-.129-.658-.385-.885c-.245-.238-.572-.357-.98-.357h-3.114v2.467h3.114Zm.087 4.714c.467 0 .834-.113 1.103-.34.268-.239.402-.562.402-.97 0-.375-.134-.687-.402-.936-.269-.261-.636-.392-1.103-.392h-3.201v2.638h3.201Zm12.756 2.297c-1.761 0-3.219-.55-4.374-1.65-1.143-1.112-1.714-2.519-1.714-4.22 0-1.703.571-3.104 1.714-4.204 1.155-1.112 2.613-1.668 4.374-1.668 1.773 0 3.231.55 4.374 1.651 1.155 1.1 1.732 2.507 1.732 4.22 0 1.713-.577 3.12-1.732 4.22-1.143 1.101-2.601 1.651-4.374 1.651Zm-2.572-3.199c.653.703 1.511 1.055 2.572 1.055 1.062 0 1.919-.352 2.572-1.055s.98-1.594.98-2.672-.327-1.968-.98-2.671c-.653-.704-1.51-1.056-2.572-1.056-1.061 0-1.919.352-2.572 1.056-.641.703-.962 1.593-.962 2.671 0 1.078.321 1.969.962 2.672Zm14.13 2.995h-2.396v-11.35h2.484v7.334l5.406-7.335h2.554v11.351h-2.484v-7.607l-5.564 7.607Zm5.896-13.376c-.758.999-1.778 1.498-3.061 1.498-1.272 0-2.298-.5-3.08-1.498l.98-.8c.513.704 1.213 1.056 2.1 1.056.863 0 1.557-.352 2.082-1.055l.979.8Zm15.595 13.58c-2.158 0-3.779-.93-4.863-2.79l2.134-1.005c.257.488.63.885 1.12 1.192.501.306 1.055.46 1.662.46.886 0 1.644-.25 2.274-.75.63-.51 1.044-1.18 1.242-2.008h-5.598v-2.127h5.546c-.222-.783-.642-1.407-1.26-1.872-.618-.465-1.353-.698-2.204-.698-.595 0-1.143.16-1.645.477-.501.306-.88.698-1.137 1.174l-2.134-1.02c1.073-1.85 2.694-2.775 4.863-2.775 1.785 0 3.266.55 4.444 1.651 1.178 1.09 1.767 2.496 1.767 4.22 0 1.725-.589 3.137-1.767 4.238-1.178 1.089-2.659 1.633-4.444 1.633Zm7.984 0v-2.144c.63 0 1.114-.244 1.452-.732.338-.499.595-1.457.77-2.876l.682-5.803h8.293v11.351h-2.502v-9.223h-3.551l-.455 3.846c-.14 1.146-.35 2.098-.63 2.858-.268.75-.618 1.317-1.05 1.702-.42.386-.863.653-1.329.8-.467.148-1.027.221-1.68.221Zm23.067-.204h-8.258v-11.35h8.258v2.127h-5.774v2.4h5.651v2.126h-5.651v2.57h5.774v2.127Zm15.903 0h-2.501v-7.947l-3.29 7.947h-1.084l-3.29-7.947v7.947h-2.484v-11.35h3.481l2.835 6.857 2.834-6.857h3.499v11.35Zm11.887 0h-8.257v-11.35h8.257v2.127h-5.774v2.4h5.652v2.126h-5.652v2.57h5.774v2.127Zm13.753 0h-2.503V21.51h-5.511v4.765h-2.483v-11.35h2.483v4.458h5.511v-4.458h2.503v11.35Zm8.806 0h-2.5v-9.223h-3.412v-2.127h9.307v2.127h-3.395v9.223ZM33.48 7.778h-.789V1.61h2.549c.614 0 1.1.179 1.454.536.355.358.533.799.533 1.323 0 .524-.18.965-.542 1.322-.355.358-.837.537-1.445.537h-1.76v2.45Zm1.665-3.135c.374 0 .678-.108.912-.323a1.12 1.12 0 0 0 .352-.851c0-.346-.117-.626-.352-.842-.234-.222-.538-.333-.912-.333H33.48v2.35h1.664Zm8.964 3.135h-.904l-.56-1.368h-3.157l-.561 1.368h-.904l2.548-6.168h.98l2.558 6.168Zm-1.702-2.053-1.341-3.32-1.35 3.32h2.69ZM47.87 7.89a3.462 3.462 0 0 1-1.436-.286c-.425-.191-.742-.435-.951-.73l.466-.491c.19.247.456.447.799.601a2.79 2.79 0 0 0 1.103.222c.494 0 .884-.102 1.17-.305.284-.21.427-.493.427-.851 0-.37-.149-.644-.447-.823-.291-.179-.69-.268-1.198-.268H46.51v-.685h1.293c.45 0 .818-.083 1.103-.25a.838.838 0 0 0 .437-.767c0-.333-.146-.592-.437-.777-.285-.185-.647-.277-1.084-.277-.716 0-1.315.25-1.797.749l-.437-.481c.253-.284.576-.512.97-.685.399-.178.84-.268 1.321-.268.647 0 1.185.148 1.617.444.437.296.656.697.656 1.202 0 .407-.143.734-.428.98-.28.241-.593.392-.942.454.349.03.679.179.99.444.316.265.475.623.475 1.073 0 .518-.219.943-.656 1.276-.438.333-1.011.5-1.721.5Zm5.562-.11h-.79V1.61h2.549c.615 0 1.1.18 1.455.537.355.358.532.799.532 1.323 0 .524-.18.965-.542 1.322-.355.358-.837.537-1.445.537h-1.76v2.45Zm1.664-3.136c.374 0 .678-.108.913-.323a1.12 1.12 0 0 0 .351-.851c0-.346-.117-.626-.352-.842-.234-.222-.538-.333-.912-.333h-1.664v2.35h1.664Zm8.964 3.135h-.904l-.56-1.368h-3.157l-.561 1.368h-.904l2.549-6.168h.98l2.557 6.168Zm-1.702-2.053-1.34-3.32-1.351 3.32h2.69ZM66.03 1.61h4.117v.684H66.82v1.767h1.76c.608 0 1.09.178 1.445.536.36.358.542.798.542 1.323 0 .524-.178.964-.533 1.322-.355.358-.84.536-1.455.536H66.03V1.61Zm2.453 3.135H66.82v2.35h1.664c.374 0 .678-.109.913-.325a1.12 1.12 0 0 0 .352-.85c0-.346-.117-.626-.352-.842-.235-.222-.539-.333-.913-.333Zm7.16 3.144c-.933 0-1.69-.302-2.273-.906-.583-.604-.875-1.366-.875-2.284 0-.919.292-1.68.875-2.285.583-.604 1.34-.906 2.272-.906.926 0 1.68.302 2.263.906.59.605.884 1.366.884 2.285 0 .918-.294 1.68-.884 2.284-.583.604-1.337.906-2.263.906Zm0-.684c.697 0 1.257-.234 1.682-.703.431-.475.647-1.076.647-1.803 0-.734-.216-1.335-.647-1.804-.425-.468-.986-.703-1.683-.703-.703 0-1.267.235-1.692.703-.425.469-.637 1.07-.637 1.804 0 .727.212 1.328.637 1.803.424.469.989.703 1.692.703Zm7.618.573h-.789V2.294h-2.006V1.61h4.81v.684h-2.015v5.484Zm9.017 0h-.98l-2.405-2.774-.637.703v2.071h-.79V1.61h.79V4.8l2.805-3.19h.989l-2.643 2.93 2.871 3.237Zm7.47 0h-.904l-.56-1.368h-3.157l-.561 1.368h-.904l2.549-6.168h.979l2.558 6.168Zm-1.702-2.053-1.341-3.32-1.35 3.32h2.69Zm10.269 2.164c-.926 0-1.702-.295-2.33-.887-.621-.598-.931-1.366-.931-2.303 0-.937.31-1.702.931-2.294.628-.598 1.404-.897 2.33-.897 1.014 0 1.816.407 2.405 1.22l-.665.361a2.076 2.076 0 0 0-.742-.647 2.078 2.078 0 0 0-.998-.25c-.697 0-1.281.238-1.75.713-.462.468-.694 1.066-.694 1.794 0 .727.232 1.328.694 1.803.469.469 1.053.703 1.75.703.355 0 .688-.08.998-.24a2.05 2.05 0 0 0 .742-.657l.675.36c-.615.815-1.42 1.221-2.415 1.221Zm9.963-.11h-.903l-.561-1.37h-3.157l-.561 1.37h-.903l2.548-6.17h.98l2.557 6.17Zm-1.702-2.054-1.34-3.32-1.351 3.32h2.691Zm4.433 2.053h-.761V1.61h.79v4.818l3.651-4.818h.808v6.168h-.789v-4.92l-3.699 4.92Zm3.528-7.334c-.412.543-.967.814-1.664.814-.691 0-1.249-.271-1.674-.814l.352-.296c.33.444.77.666 1.322.666.557 0 .995-.222 1.312-.666l.352.296Zm5.942 7.334h-.789V2.294h-2.006V1.61h4.811v.684h-2.016v5.484Zm8.995 0h-.904l-.561-1.368h-3.156l-.561 1.368h-.904l2.549-6.168h.979l2.558 6.168Zm-1.702-2.053-1.341-3.32-1.35 3.32h2.691ZM11.22 31.27c6.196 0 11.22-4.887 11.22-10.914S17.416 9.443 11.22 9.443C5.023 9.443 0 14.329 0 20.356S5.023 31.27 11.22 31.27ZM22.348 7.594c2.153 0 3.898-1.698 3.898-3.792 0-2.095-1.745-3.792-3.898-3.792s-3.899 1.697-3.899 3.792c0 2.094 1.746 3.792 3.899 3.792Z"/></g><defs><clipPath id="a"><path fill="#fff" transform="translate(0 .01)" d="M0 0h240.941v32H0z"/></clipPath></defs></svg>