<svg width="233" height="104" viewBox="0 0 233 104" fill="none" xmlns="http://www.w3.org/2000/svg"><g clip-path="url(#a)"><mask id="b" style="mask-type:luminance" maskUnits="userSpaceOnUse" x="39" y="45" width="16" height="16"><path d="M41.68 47.838a7.536 7.536 0 0 0 3.622 12.316 7.497 7.497 0 0 0 5.002-.39 7.519 7.519 0 0 0 3.641-3.457 7.542 7.542 0 0 0-1.961-9.271 7.503 7.503 0 0 0-10.304.802Z" fill="#fff"/></mask><g mask="url(#b)"><path d="M55.61 45.354H38.906v15.892H55.61V45.354Z" fill="url(#c)"/></g><mask id="d" style="mask-type:luminance" maskUnits="userSpaceOnUse" x="14" y="21" width="36" height="33"><path d="M25.764 24.267A35.92 35.92 0 0 0 14.452 38.67c2.97.733 11.851 3.634 15.941 14.672 1.229-.4 3.871-1.946 5.707-7.91 2.461-7.985 7.129-15.667 13.183-18.244-3.634-3.604-7.963-5.56-12.913-5.56-3.278 0-6.809.85-10.606 2.634" fill="#fff"/></mask><g mask="url(#d)"><path d="M24.78 5.688 0 43.928l38.948 25.347 24.782-38.24L24.78 5.688Z" fill="url(#e)"/></g><mask id="f" style="mask-type:luminance" maskUnits="userSpaceOnUse" x="25" y="17" width="50" height="20"><path d="M25.764 24.267c13.226-6.22 23.42-1.09 29.662 11.876 9.943 1.787 16.696-3.171 19.358-6.105a35.682 35.682 0 0 0-49.023-5.772" fill="#fff"/></mask><g mask="url(#f)"><path d="M32.643 0 18.53 35.004l49.377 19.992L82.02 19.992 32.643 0Z" fill="url(#g)"/></g><mask id="h" style="mask-type:luminance" maskUnits="userSpaceOnUse" x="23" y="63" width="34" height="26"><path d="M33.286 85.839a35.79 35.79 0 0 0 18.097 2.62c-.85-2.944-2.79-12.112 4.708-21.17-.96-.865-3.616-2.389-9.688-1.012-8.13 1.858-17.101 1.645-22.357-2.32-2.153 8.233.606 15.842 9.24 21.871" fill="#fff"/></mask><g mask="url(#h)"><path d="m21.982 62.18-1.408 26.928 35.42 1.86 1.409-26.928-35.421-1.86Z" fill="url(#i)"/></g><mask id="j" style="mask-type:luminance" maskUnits="userSpaceOnUse" x="11" y="40" width="23" height="46"><path d="M16.313 70.786a35.6 35.6 0 0 0 16.973 15.053c-11.988-8.37-12.651-19.784-4.567-31.686-3.427-9.524-11.095-12.905-14.953-13.75a35.812 35.812 0 0 0 2.547 30.383Z" fill="#fff"/></mask><g mask="url(#j)"><path d="M32.854 37.078 3.966 41.172l6.735 47.73 28.889-4.094-6.736-47.73Z" fill="url(#k)"/></g><mask id="l" style="mask-type:luminance" maskUnits="userSpaceOnUse" x="55" y="31" width="28" height="37"><path d="M55.297 38.008c-.267 1.264-.252 4.334 3.982 8.908 5.669 6.128 9.97 14.02 9.174 20.564 8.19-2.246 13.385-8.445 14.277-18.952a35.984 35.984 0 0 0-6.786-17.017c-2.118 2.211-9.078 8.478-20.65 6.5" fill="#fff"/></mask><g mask="url(#l)"><path d="m77.019 20.28-36.51 18.642L60.737 78.71l36.51-18.642-20.23-39.787Z" fill="url(#m)"/></g><mask id="n" style="mask-type:luminance" maskUnits="userSpaceOnUse" x="52" y="48" width="32" height="41"><path d="M57.635 68.33c-6.516 7.737-5.608 16.076-4.403 19.854a35.73 35.73 0 0 0 22.686-13.912 35.873 35.873 0 0 0 6.817-25.762c-1.24 14.59-10.77 20.87-25.095 19.807" fill="#fff"/></mask><g mask="url(#n)"><path d="m71.317 32.709-39.4 30.847L63.448 104l39.4-30.847-31.53-40.443Z" fill="url(#o)"/></g><mask id="p" style="mask-type:luminance" maskUnits="userSpaceOnUse" x="-107" y="-30" width="1274" height="639"><path d="M1166.61-29.03H-106.413v637.858H1166.61V-29.03Z" fill="#fff"/></mask><g mask="url(#p)"><path d="M94.63 24.585h-.716v56.589h.716V24.585Z" fill="#222"/></g><path d="M114.089 40.31h-1.393v-4.997h-5.482v4.997h-1.394V29.447h1.394v4.594h5.482v-4.593h1.393V40.31Zm8.639-2.902h-4.63l-1.053 2.902h-1.409l4.134-10.863h1.394l4.057 10.863h-1.455l-1.038-2.902Zm-4.181-1.272h3.732l-1.812-5.106h-.062l-1.858 5.106Zm9.201 3.352c.278-.124.521-.3.727-.528.217-.238.413-.553.589-.947l.108-.248-4.041-8.317h1.564l3.205 6.812 2.571-6.812h1.409l-3.546 8.798a6.158 6.158 0 0 1-.31.652 6.05 6.05 0 0 1-.418.636 3.746 3.746 0 0 1-.527.543 2.325 2.325 0 0 1-.588.388l-.743-.977Zm13.909.822a58.377 58.377 0 0 1-1.192-1.8c-.31-.507-.573-.941-.79-1.303a27.792 27.792 0 0 0-.542-.9 2.53 2.53 0 0 0-.418-.544.994.994 0 0 0-.418-.279 1.625 1.625 0 0 0-.542-.078h-1.022v4.904h-1.394V29.447h1.394v4.935h.913l3.825-4.934h1.781l-4.165 4.996c.299.052.562.202.789.45.228.238.486.595.775 1.071.289.466.645 1.06 1.068 1.785a45.772 45.772 0 0 0 1.704 2.56h-1.766Zm9.38-2.902h-4.63l-1.053 2.902h-1.409l4.135-10.863h1.393l4.058 10.863h-1.456l-1.038-2.902Zm-4.181-1.272h3.732l-1.811-5.106h-.062l-1.859 5.106Zm-32.798 23.106h-1.393V50.49l-5.265 8.752h-1.58V48.38h1.394v8.752l5.265-8.752h1.579v10.862Zm14.639 0h-1.394V50.49l-5.265 8.752h-1.579V48.38h1.393v8.752l5.265-8.752h1.58v10.862Zm11.055 0h-1.394v-4.997h-5.481v4.997h-1.394V48.38h1.394v4.593h5.481V48.38h1.394v10.862Zm11.055 0h-1.394v-4.997h-5.482v4.997h-1.394V48.38h1.394v4.593h5.482V48.38h1.394v10.862Zm7.369-1.148c1.022 0 1.822-.357 2.4-1.07.588-.725.883-1.796.883-3.213 0-.745-.083-1.386-.248-1.924-.155-.538-.382-.983-.682-1.335a2.665 2.665 0 0 0-1.099-.776 3.928 3.928 0 0 0-1.44-.248c-.475 0-.919.088-1.332.264-.413.176-.769.44-1.068.791-.3.352-.537.797-.713 1.335-.175.538-.263 1.169-.263 1.893 0 .714.083 1.34.248 1.878.175.538.418.988.728 1.35a2.93 2.93 0 0 0 1.115.791c.443.176.934.264 1.471.264Zm-.14 1.303c-.753 0-1.435-.129-2.044-.387a4.456 4.456 0 0 1-1.548-1.102c-.424-.487-.749-1.076-.976-1.77-.227-.692-.341-1.468-.341-2.327 0-.87.119-1.645.357-2.328.237-.693.567-1.277.991-1.753a4.367 4.367 0 0 1 1.548-1.118 4.911 4.911 0 0 1 1.967-.388c.805 0 1.512.14 2.121.42a4.09 4.09 0 0 1 1.549 1.148c.423.486.743 1.076.96 1.769a7.4 7.4 0 0 1 .325 2.25c0 .92-.124 1.733-.371 2.436-.248.693-.589 1.273-1.023 1.738a4.208 4.208 0 0 1-1.548 1.056 5.28 5.28 0 0 1-1.967.356Zm8.624-6.331h1.487c.464 0 .857-.047 1.177-.14.32-.093.578-.222.774-.388a1.37 1.37 0 0 0 .418-.59 2.07 2.07 0 0 0 .139-.76c0-.486-.17-.858-.511-1.117-.34-.259-.929-.388-1.765-.388h-1.719v3.383Zm0 4.873h1.905c1.518 0 2.276-.59 2.276-1.77 0-.682-.216-1.174-.65-1.474-.423-.3-1.069-.45-1.936-.45h-1.595v3.694Zm-1.393 1.303V48.38h3.298c.63 0 1.167.067 1.61.201.444.124.806.31 1.084.559.279.238.48.528.604.869.124.331.186.698.186 1.102 0 .641-.175 1.18-.526 1.614-.351.424-.868.708-1.549.853v.031c.774.114 1.358.404 1.75.87.403.454.604 1.013.604 1.675 0 .404-.072.792-.217 1.164a2.676 2.676 0 0 1-.681.993c-.31.28-.707.507-1.193.683-.485.166-1.073.248-1.765.248h-3.205Zm15.168-2.902h-4.63l-1.053 2.902h-1.409l4.135-10.862h1.393l4.058 10.862h-1.456l-1.038-2.902Zm-4.181-1.272h3.732l-1.811-5.106h-.062l-1.859 5.106Zm17.184 6.595h-1.394v-2.42h-7.572V48.378h1.394v9.56h4.94v-9.56h1.393v9.56h1.239v3.724Zm10.1-2.421h-1.394V50.49l-5.265 8.752H195.3V48.38h1.393v8.752l5.266-8.752h1.579v10.862Zm11.024 0h-1.393V50.49l-5.265 8.752h-1.58V48.38h1.394v8.752l5.265-8.752h1.579v10.862Z" fill="#222"/><path d="M106.659 71.748h1.339c.694 0 1.219-.14 1.575-.422.364-.282.546-.713.546-1.293 0-.596-.182-1.027-.546-1.292-.356-.265-.881-.398-1.575-.398h-1.339v3.405Zm0 4.25h-1.117V67.3h2.555c.496 0 .939.054 1.327.162.397.1.736.26 1.017.485.281.223.496.505.645.845.149.34.223.745.223 1.218 0 .903-.293 1.594-.88 2.075-.579.472-1.389.708-2.431.708h-1.339V76Zm9.93-.919c.818 0 1.459-.286 1.922-.857.471-.58.707-1.438.707-2.573 0-.597-.066-1.11-.199-1.541-.124-.43-.305-.787-.545-1.069a2.14 2.14 0 0 0-.881-.621 3.146 3.146 0 0 0-1.153-.199c-.38 0-.736.07-1.067.211-.33.141-.615.352-.855.634a3.13 3.13 0 0 0-.571 1.069c-.14.43-.211.936-.211 1.516 0 .572.067 1.073.199 1.504.14.43.335.791.583 1.08.248.283.545.494.893.635.355.14.748.211 1.178.211Zm-.112 1.044a4.152 4.152 0 0 1-1.637-.31 3.579 3.579 0 0 1-1.24-.883 4.048 4.048 0 0 1-.781-1.417 5.964 5.964 0 0 1-.273-1.864c0-.696.095-1.317.285-1.864.19-.555.455-1.023.794-1.404.347-.39.76-.688 1.24-.895a3.93 3.93 0 0 1 1.575-.311c.645 0 1.211.112 1.699.336.496.215.909.522 1.24.92.339.389.595.86.769 1.416.174.547.26 1.148.26 1.802 0 .737-.099 1.388-.297 1.951-.199.555-.471 1.02-.819 1.392-.347.373-.76.655-1.24.845a4.223 4.223 0 0 1-1.575.286Zm11.644-.36c-.24.115-.521.203-.843.26a5.19 5.19 0 0 1-1.054.1c-.678 0-1.286-.1-1.823-.298a3.786 3.786 0 0 1-1.352-.883 3.868 3.868 0 0 1-.856-1.367 5.23 5.23 0 0 1-.298-1.814c0-.737.1-1.392.298-1.964a3.903 3.903 0 0 1 .856-1.441 3.6 3.6 0 0 1 1.339-.883 4.972 4.972 0 0 1 1.761-.298c.496 0 .897.037 1.203.112.314.066.575.14.781.224l-.21.981a4.15 4.15 0 0 0-.831-.21 5.696 5.696 0 0 0-.831-.063c-1.034 0-1.823.29-2.369.87-.537.58-.806 1.433-.806 2.56 0 .538.074 1.023.223 1.454.157.423.376.783.657 1.081.282.29.625.514 1.03.671.405.15.864.224 1.376.224.273 0 .546-.025.819-.075.281-.05.529-.128.744-.236l.186.995Zm6.682-2.088h-3.708l-.843 2.324h-1.129l3.311-8.7h1.116l3.25 8.7h-1.166l-.831-2.324Zm-3.348-1.02h2.988l-1.451-4.088h-.049l-1.488 4.089Zm8.778 3.344h-1.116v-7.656h-2.567V67.3h6.25v1.044h-2.567V76Zm7.359-.92c.819 0 1.46-.286 1.923-.857.471-.58.707-1.438.707-2.573 0-.597-.067-1.11-.199-1.541-.124-.43-.306-.787-.546-1.069a2.136 2.136 0 0 0-.88-.621 3.146 3.146 0 0 0-1.153-.199c-.381 0-.736.07-1.067.211a2.29 2.29 0 0 0-.856.634c-.239.282-.43.638-.57 1.069-.141.43-.211.936-.211 1.516 0 .572.066 1.073.198 1.504.141.43.335.791.583 1.08.248.283.546.494.893.635.356.14.748.211 1.178.211Zm-.111 1.044a4.149 4.149 0 0 1-1.637-.31 3.57 3.57 0 0 1-1.24-.883 4.05 4.05 0 0 1-.782-1.417c-.182-.555-.272-1.176-.272-1.864 0-.696.095-1.317.285-1.864a4.06 4.06 0 0 1 .793-1.404 3.51 3.51 0 0 1 1.241-.895 3.927 3.927 0 0 1 1.575-.311c.644 0 1.211.112 1.699.336.496.215.909.522 1.24.92.339.389.595.86.769 1.416a5.95 5.95 0 0 1 .26 1.802c0 .737-.099 1.388-.298 1.951a3.97 3.97 0 0 1-.818 1.392 3.377 3.377 0 0 1-1.24.845 4.23 4.23 0 0 1-1.575.286Zm14.273-.124h-1.116l-.534-6.798-2.195 6.798h-1.165l-2.183-6.773-.546 6.773h-1.116l.744-8.7h1.364l2.344 7.482 2.294-7.482h1.365l.744 8.7Z" fill="#035FA2"/></g><defs><linearGradient id="e" x1="23.524" y1="48.831" x2="41.347" y2="21.443" gradientUnits="userSpaceOnUse"><stop stop-color="#4495D1"/><stop offset="1" stop-color="#15256D"/></linearGradient><linearGradient id="g" x1="29.046" y1="16.274" x2="73.217" y2="34.083" gradientUnits="userSpaceOnUse"><stop stop-color="#4495D1"/><stop offset="1" stop-color="#15256D"/></linearGradient><linearGradient id="i" x1="55.62" y1="77.129" x2="23.039" y2="75.425" gradientUnits="userSpaceOnUse"><stop stop-color="#4495D1"/><stop offset="1" stop-color="#15256D"/></linearGradient><linearGradient id="k" x1="24.966" y1="86.878" x2="18.273" y2="39.645" gradientUnits="userSpaceOnUse"><stop stop-color="#4495D1"/><stop offset="1" stop-color="#15256D"/></linearGradient><linearGradient id="m" x1="62.2" y1="34.517" x2="77.062" y2="63.624" gradientUnits="userSpaceOnUse"><stop stop-color="#4495D1"/><stop offset="1" stop-color="#15256D"/></linearGradient><linearGradient id="o" x1="85.121" y1="51.732" x2="47.543" y2="81.029" gradientUnits="userSpaceOnUse"><stop stop-color="#4495D1"/><stop offset="1" stop-color="#15256D"/></linearGradient><radialGradient id="c" cx="0" cy="0" r="1" gradientUnits="userSpaceOnUse" gradientTransform="matrix(10.5682 0 0 10.5905 44.85 46.12)"><stop stop-color="#4495D1"/><stop offset="1" stop-color="#15256D"/></radialGradient><clipPath id="a"><path fill="#fff" d="M0 0h233v104H0z"/></clipPath></defs></svg>