<svg width="24" height="25" viewBox="0 0 24 25" fill="none" xmlns="http://www.w3.org/2000/svg"><path d="M22.533 24.967 13.767 16.2a7.348 7.348 0 0 1-2.332 1.35 8.247 8.247 0 0 1-2.835.483c-2.404 0-4.438-.833-6.103-2.5C.832 13.867 0 11.855 0 9.5c0-2.356.833-4.367 2.5-6.033C4.167 1.8 6.183.967 8.55.967s4.378.833 6.033 2.5c1.656 1.666 2.484 3.679 2.484 6.038a8.3 8.3 0 0 1-.467 2.762 8.462 8.462 0 0 1-1.4 2.5L24 23.5l-1.467 1.467ZM8.567 16.033c1.805 0 3.34-.639 4.604-1.916 1.264-1.278 1.896-2.817 1.896-4.617 0-1.8-.632-3.339-1.896-4.617-1.264-1.278-2.799-1.916-4.604-1.916-1.824 0-3.375.638-4.652 1.916C2.638 6.161 2 7.7 2 9.5c0 1.8.638 3.339 1.915 4.617 1.277 1.277 2.828 1.916 4.652 1.916Z" fill="#7F7F7F"/></svg>