<svg width="32" height="32" viewBox="0 0 32 32" fill="none" xmlns="http://www.w3.org/2000/svg"><g clip-path="url(#a)"><path d="M0 16.01C0 8.467 0 4.696 2.343 2.353S8.458.01 16 .01c7.543 0 11.314 0 13.657 2.343S32 8.467 32 16.01c0 7.542 0 11.313-2.343 13.657C27.314 32.01 23.543 32.01 16 32.01c-7.542 0-11.314 0-13.657-2.343C0 27.323 0 23.552 0 16.01Z" fill="#025EA1"/><path fill-rule="evenodd" clip-rule="evenodd" d="M7.241 15.841c4.665-2.032 7.775-3.372 9.331-4.02 4.444-1.847 5.367-2.168 5.969-2.179.132-.002.428.03.62.186.284.23.286.732.254 1.063-.24 2.53-1.283 8.67-1.813 11.503-.224 1.2-.666 1.601-1.093 1.64-.93.086-1.635-.613-2.535-1.203-1.408-.923-2.204-1.498-3.57-2.399-1.58-1.04-.556-1.613.344-2.548.236-.245 4.33-3.968 4.409-4.306.01-.042.019-.2-.075-.283-.093-.083-.231-.055-.33-.032-.142.032-2.392 1.519-6.75 4.46-.638.44-1.217.653-1.735.642-.571-.013-1.67-.323-2.487-.589-1.002-.326-1.798-.498-1.729-1.051.036-.288.433-.583 1.19-.884Z" fill="#fff"/></g><defs><clipPath id="a"><path fill="#fff" transform="translate(0 .01)" d="M0 0h32v32H0z"/></clipPath></defs></svg>