<svg width="32" height="32" viewBox="0 0 32 32" fill="none" xmlns="http://www.w3.org/2000/svg"><g clip-path="url(#a)"><rect y=".01" width="32" height="32" rx="8" fill="#025EA1"/><path d="M25.894 20.61a1.36 1.36 0 0 0-.068-.13c-.347-.626-1.01-1.393-1.989-2.302l-.02-.021-.01-.01-.011-.01h-.01c-.445-.424-.726-.709-.844-.855-.216-.277-.264-.558-.146-.843.083-.215.396-.67.937-1.364.285-.368.51-.663.677-.885 1.201-1.597 1.722-2.617 1.562-3.062l-.062-.104c-.042-.062-.15-.12-.323-.171-.174-.053-.396-.061-.666-.027l-3 .021a.389.389 0 0 0-.208.005l-.135.032-.052.026-.042.031a.463.463 0 0 0-.114.11.716.716 0 0 0-.104.182c-.327.84-.698 1.62-1.114 2.343-.257.43-.493.803-.709 1.12a5.391 5.391 0 0 1-.541.697 3.918 3.918 0 0 1-.396.359c-.118.09-.208.128-.27.114a8.237 8.237 0 0 1-.178-.041.693.693 0 0 1-.234-.255 1.142 1.142 0 0 1-.12-.406 4.452 4.452 0 0 1-.036-.422 8.704 8.704 0 0 1 .005-.5c.007-.215.01-.361.01-.438 0-.263.006-.55.016-.859l.026-.734c.007-.18.01-.371.01-.572 0-.202-.012-.36-.036-.474a1.619 1.619 0 0 0-.109-.333.561.561 0 0 0-.213-.25 1.204 1.204 0 0 0-.35-.141c-.367-.083-.836-.128-1.405-.135-1.291-.014-2.121.07-2.489.25-.146.076-.278.18-.395.312-.125.153-.143.236-.053.25.417.062.712.211.885.448l.063.125c.049.09.097.25.146.479a4.8 4.8 0 0 1 .093.76c.035.507.035.94 0 1.301-.034.361-.067.643-.098.844a1.69 1.69 0 0 1-.266.718.181.181 0 0 1-.052.052.78.78 0 0 1-.281.053c-.098 0-.216-.05-.354-.146a2.497 2.497 0 0 1-.432-.401 5.357 5.357 0 0 1-.506-.714 12.467 12.467 0 0 1-.583-1.083l-.166-.302a25.92 25.92 0 0 1-.427-.848c-.18-.372-.34-.731-.48-1.078a.687.687 0 0 0-.249-.333l-.052-.032a.711.711 0 0 0-.167-.088 1.106 1.106 0 0 0-.24-.068l-2.852.021c-.292 0-.49.066-.594.198l-.042.062a.337.337 0 0 0-.031.167c0 .076.02.17.063.281.416.979.869 1.923 1.358 2.832.49.91.915 1.643 1.276 2.198.36.555.729 1.08 1.104 1.572.375.493.623.809.744.948.122.139.217.242.287.312l.26.25c.167.166.411.366.734.598.323.233.68.462 1.073.688.392.226.848.41 1.37.552.52.142 1.027.2 1.52.172h1.197c.243-.021.427-.098.552-.23l.041-.052a.688.688 0 0 0 .078-.192c.025-.087.037-.182.037-.286a3.428 3.428 0 0 1 .067-.807c.052-.24.111-.42.178-.542a1.328 1.328 0 0 1 .4-.458.675.675 0 0 1 .084-.036c.166-.056.362-.002.588.161.226.163.438.365.636.604.197.24.435.509.713.807.278.299.52.52.729.667l.208.125c.139.083.32.16.542.229.221.07.416.087.583.052l2.665-.042c.264 0 .469-.043.614-.13.146-.087.233-.183.26-.286a.806.806 0 0 0 .006-.355 1.308 1.308 0 0 0-.073-.276Z" fill="#fff"/></g><defs><clipPath id="a"><path fill="#fff" transform="translate(0 .01)" d="M0 0h32v32H0z"/></clipPath></defs></svg>