<svg width="32" height="32" viewBox="0 0 32 32" fill="none" xmlns="http://www.w3.org/2000/svg"><g clip-path="url(#a)"><rect y=".01" width="32" height="32" rx="8" fill="#025EA1"/><path d="M24.979 11.323a2.349 2.349 0 0 0-1.653-1.652c-1.467-.402-7.336-.402-7.336-.402s-5.869 0-7.336.386A2.397 2.397 0 0 0 7 11.323c-.386 1.467-.386 4.51-.386 4.51s0 3.058.386 4.51a2.35 2.35 0 0 0 1.653 1.652c1.483.402 7.336.402 7.336.402s5.87 0 7.336-.386a2.35 2.35 0 0 0 1.653-1.653c.386-1.467.386-4.51.386-4.51s.016-3.058-.386-4.525Zm-10.858 7.32v-5.62l4.88 2.81-4.88 2.81Z" fill="#fff"/></g><defs><clipPath id="a"><path fill="#fff" transform="translate(0 .01)" d="M0 0h32v32H0z"/></clipPath></defs></svg>